<?xml version="1.0" encoding="UTF-8" standalone="no"?>
<!-- Created with Inkscape (http://www.inkscape.org/) -->

<svg
   xmlns:dc="http://purl.org/dc/elements/1.1/"
   xmlns:cc="http://creativecommons.org/ns#"
   xmlns:rdf="http://www.w3.org/1999/02/22-rdf-syntax-ns#"
   xmlns:svg="http://www.w3.org/2000/svg"
   xmlns="http://www.w3.org/2000/svg"
   xmlns:sodipodi="http://sodipodi.sourceforge.net/DTD/sodipodi-0.dtd"
   xmlns:inkscape="http://www.inkscape.org/namespaces/inkscape"
   width="210mm"
   height="297mm"
   viewBox="0 0 210 297"
   version="1.1"
   id="svg8"
   inkscape:version="0.92.4 5da689c313, 2019-01-14"
   sodipodi:docname="drawing.svg">
  <defs
     id="defs2" />
  <sodipodi:namedview
     id="base"
     pagecolor="#ffffff"
     bordercolor="#666666"
     borderopacity="1.0"
     inkscape:pageopacity="0.0"
     inkscape:pageshadow="2"
     inkscape:zoom="0.49497475"
     inkscape:cx="442.72666"
     inkscape:cy="827.25131"
     inkscape:document-units="mm"
     inkscape:current-layer="layer1"
     showgrid="false"
     inkscape:window-width="1366"
     inkscape:window-height="694"
     inkscape:window-x="0"
     inkscape:window-y="0"
     inkscape:window-maximized="1" />
  <metadata
     id="metadata5">
    <rdf:RDF>
      <cc:Work
         rdf:about="">
        <dc:format>image/svg+xml</dc:format>
        <dc:type
           rdf:resource="http://purl.org/dc/dcmitype/StillImage" />
        <dc:title />
      </cc:Work>
    </rdf:RDF>
  </metadata>
  <g
     inkscape:label="Layer 1"
     inkscape:groupmode="layer"
     id="layer1">
    <path
       id="path678"
       style="fill:none;stroke:#000000;stroke-width:1"
       d="m 4.8,145.89 v -8.17722 h -3 v -11.31222 h 3 v -11.13223 h -3 v -11.31222 h 3 V 92.823889 h -3 V 81.511667 h 3 V 70.379444 h -3 V 59.067222 h 3 V 50.89 m 40,95 H 32.511667 v 3 H 17.088333 v -3 H 4.8 m 40,-95 v 8.177222 h 3 v 11.312222 h -3 v 11.132223 h 3 v 11.312222 h -3 v 11.132221 h 3 v 11.31222 h -3 v 11.13223 h 3 v 11.31222 h -3 V 145.89 m -40,-95 h 12.288333 v -3 h 15.423334 v 3 H 44.8"
       inkscape:connector-curvature="0" />
    <path
       id="path686"
       style="fill:none;stroke:#000000;stroke-width:1"
       d="m 3,341.5 v -8.17722 0 -11.31222 0 -11.13223 0 -11.31222 0 -11.13222 0 -11.31222 0 -11.13223 0 -11.31222 0 V 246.5 m 33.196428,95 -5.484761,0 v 3 H 15.288333 v -3 H 3 m 33.196428,-95 v 8.17722 0 11.31222 0 11.13223 0 11.31222 0 11.13222 0 11.31222 0 11.13223 0 11.31222 0 V 341.5 M 3,246.5 h 12.288333 v -3 h 15.423334 v 3 l 5.484761,0"
       inkscape:connector-curvature="0"
       sodipodi:nodetypes="cccccccccccccccccccccccccccccccccccccccccccccccc" />
    <path
       id="path694"
       style="stroke:#000000;stroke-width:1;fill:none"
       d="m 47.8,148.8 v -11.26722 h 3 v -11.13222 h -3 v -11.31223 h 3 v -11.13222 h -3 V 92.643889 h 3 V 81.511667 h -3 V 70.199444 h 3 V 59.067222 h -3 V 47.8 m 136,101 h -10.50654 v -3 h -10.37154 v 3 h -10.55154 v -3 h -10.37153 v 3 h -10.55154 v -3 h -10.37154 v 3 h -10.55154 v -3 h -10.37154 v 3 H 89.601154 v -3 H 79.229615 v 3 H 68.678077 v -3 H 58.306538 v 3 H 47.8 m 136,-101 v 11.267222 h -3 v 11.132222 h 3 v 11.312223 h -3 v 11.132222 h 3 v 11.312221 h -3 v 11.13222 h 3 v 11.31223 h -3 v 11.13222 h 3 V 148.8 m -136,-101 h 10.506538 v 3 h 10.371539 v -3 h 10.551538 v 3 h 10.371539 v -3 h 10.551536 v 3 h 10.37154 v -3 h 10.55154 v 3 h 10.37154 v -3 h 10.55154 v 3 h 10.37153 v -3 h 10.55154 v 3 h 10.37154 v -3 H 183.8" />
    <path
       id="path799"
       style="stroke:#000000;stroke-width:1;fill:none"
       d="m 231.6,47.8 h 10.50654 v 3 h 10.37154 v -3 h 10.55154 v 3 h 10.37153 v -3 h 10.55154 v 3 h 10.37154 v -3 h 10.55154 v 3 h 10.37154 v -3 h 10.55154 v 3 h 10.37153 v -3 h 10.55154 v 3 h 10.37154 v -3 H 367.6 m 0,0 v 11.267222 h -3 v 11.132222 h 3 v 11.312223 h -3 v 11.132222 h 3 v 11.312221 h -3 v 11.13222 h 3 v 11.31223 h -3 v 11.13222 h 3 V 148.8 m 0,0 h -10.50654 v -3 h -10.37154 v 3 h -10.55154 v -3 h -10.37153 v 3 h -10.55154 v -3 h -10.37154 v 3 h -10.55154 v -3 h -10.37154 v 3 h -10.55154 v -3 h -10.37153 v 3 h -10.55154 v -3 h -10.37154 v 3 H 231.6 m 0,0 v -11.26722 h 3 v -11.13222 h -3 v -11.31223 h 3 v -11.13222 h -3 V 92.643889 h 3 V 81.511667 h -3 V 70.199444 h 3 V 59.067222 h -3 V 47.8" />
    <path
       id="path710"
       style="stroke:#000000;stroke-width:1;fill:none"
       d="m 187.7,50.8 h 12.28833 v -3 h 15.42334 v 3 H 227.7 m 0,0 v 8.177222 h 3 v 11.312222 h -3 v 11.132223 h 3 v 11.312222 h -3 v 11.132221 h 3 v 11.31222 h -3 v 11.13223 h 3 v 11.31222 h -3 V 145.8 m 0,0 h -12.28833 v 3 h -15.42334 v -3 H 187.7 m 0,0 v -8.17722 h -3 v -11.31222 h 3 v -11.13223 h -3 v -11.31222 h 3 V 92.733889 h -3 V 81.421667 h 3 V 70.289444 h -3 V 58.977222 h 3 V 50.8 M 47.8,192.7 v -12.37833 h 3 v -15.24334 h -3 V 152.7 m 136,40 h -10.41654 v 3 h -10.55154 v -3 h -10.37154 v 3 h -10.55153 v -3 h -10.37154 v 3 h -10.55154 v -3 h -10.37154 v 3 h -10.55154 v -3 H 89.691154 v 3 H 79.139615 v -3 H 68.768077 v 3 H 58.216538 v -3 H 47.8 m 136,-40 v 12.37833 h -3 v 15.24334 h 3 V 192.7 m -69.5,-27.62167 v 15.24334 h 3 v -15.24334 h -3 M 47.8,152.7 h 10.416538 v -3 h 10.551539 v 3 h 10.371538 v -3 h 10.551539 v 3 h 10.371536 v -3 h 10.55154 v 3 h 10.37154 v -3 h 10.55154 v 3 h 10.37154 v -3 h 10.55153 v 3 h 10.37154 v -3 h 10.55154 v 3 H 183.8" />
    <path
       id="path720"
       style="stroke:#000000;stroke-width:1;fill:none"
       d="M 47.8,43.9 V 31.521667 h 3 V 16.278333 h -3 V 3.9 m 136,40 h -10.41654 v 3 h -10.55154 v -3 h -10.37154 v 3 h -10.55153 v -3 h -10.37154 v 3 h -10.55154 v -3 h -10.37154 v 3 h -10.55154 v -3 H 89.691154 v 3 H 79.139615 v -3 H 68.768077 v 3 H 58.216538 v -3 H 47.8 m 136,-40 v 12.378333 h -3 v 15.243334 h 3 V 43.9 M 114.3,16.278333 v 15.243334 h 3 V 16.278333 h -3 M 47.8,3.9 H 58.216538 V 0.89999998 H 68.768077 V 3.9 H 79.139615 V 0.89999998 H 89.691154 V 3.9 H 100.06269 V 0.89999998 h 10.55154 V 3.9 h 10.37154 V 0.89999998 h 10.55154 V 3.9 h 10.37154 V 0.89999998 h 10.55153 V 3.9 h 10.37154 V 0.89999998 h 10.55154 V 3.9 H 183.8" />
    <text
       xml:space="preserve"
       style="font-style:normal;font-weight:normal;font-size:10.58333302px;line-height:1.25;font-family:sans-serif;letter-spacing:0px;word-spacing:0px;fill:#000000;fill-opacity:1;stroke:none;stroke-width:0.26458332"
       x="285.97836"
       y="128.62021"
       id="text20"><tspan
         sodipodi:role="line"
         id="tspan18"
         x="285.97836"
         y="128.62021"
         style="stroke-width:0.26458332">Máni</tspan></text>
  </g>
  <g
     id="g126"
     inkscape:groupmode="layer"
     inkscape:label="newlayer" />
  <g
     id="g307"
     inkscape:groupmode="layer"
     inkscape:label="newlayer" />
  <g
     id="g493"
     inkscape:groupmode="layer"
     inkscape:label="newlayer" />
  <g
     id="g594"
     inkscape:groupmode="layer"
     inkscape:label="newlayer" />
  <g
     id="g727"
     inkscape:groupmode="layer"
     inkscape:label="newlayer" />
</svg>
